<svg width="81" height="80" viewBox="0 0 81 80" fill="none" xmlns="http://www.w3.org/2000/svg">
<path d="M61.75 0H19.25C8.89466 0 0.5 8.39466 0.5 18.75V61.25C0.5 71.6053 8.89466 80 19.25 80H61.75C72.1053 80 80.5 71.6053 80.5 61.25V18.75C80.5 8.39466 72.1053 0 61.75 0Z" fill="#EAEAEA"/>
<path d="M26.9825 34.9878C26.9825 35.7484 27.0647 36.365 27.2085 36.8175C27.3912 37.3264 27.6112 37.8212 27.8666 38.2978C27.9694 38.4622 28.0104 38.6266 28.0104 38.7706C28.0104 38.9762 27.8869 39.1819 27.6197 39.3872L26.3244 40.2509C26.1394 40.3741 25.9544 40.4359 25.79 40.4359C25.5844 40.4359 25.3788 40.3331 25.1732 40.1481C24.8962 39.8504 24.6484 39.5268 24.4332 39.1819C24.2034 38.7868 23.9907 38.3821 23.7957 37.9687C22.1922 39.8603 20.1772 40.8059 17.7513 40.8059C16.0244 40.8059 14.6469 40.3125 13.6394 39.3256C12.6322 38.3387 12.1182 37.0231 12.1182 35.3784C12.1182 33.6306 12.735 32.2122 13.9891 31.1431C15.2432 30.0741 16.9085 29.5394 19.026 29.5394C19.725 29.5394 20.4447 29.6012 21.2054 29.7041C21.966 29.8069 22.7472 29.9712 23.5697 30.1562V28.6553C23.5697 27.0928 23.2407 26.0031 22.6035 25.3659C21.9454 24.7284 20.8354 24.4203 19.2522 24.4203C18.5325 24.4203 17.7925 24.5025 17.0319 24.6875C16.271 24.8725 15.531 25.0987 14.8113 25.3866C14.5776 25.4911 14.3373 25.5804 14.0919 25.6538C13.9482 25.695 13.845 25.7156 13.7629 25.7156C13.4754 25.7156 13.331 25.51 13.331 25.0781V24.0706C13.331 23.7419 13.3722 23.495 13.475 23.3512C13.5779 23.2075 13.7629 23.0634 14.0507 22.9194C14.7704 22.5494 15.6338 22.2413 16.6413 21.9944C17.6485 21.7269 18.7175 21.6038 19.8485 21.6038C22.295 21.6038 24.0835 22.1587 25.235 23.2687C26.3657 24.3791 26.9413 26.065 26.9413 28.3266V34.9878H26.9825ZM18.6357 38.1128C19.3138 38.1128 20.0129 37.9894 20.7532 37.7425C21.4932 37.4959 22.151 37.0434 22.7063 36.4269C23.035 36.0362 23.2819 35.6044 23.405 35.1109C23.5285 34.6175 23.6107 34.0212 23.6107 33.3225V32.4587C22.9873 32.3071 22.3559 32.1905 21.7194 32.1094C21.0783 32.028 20.4328 31.9868 19.7866 31.9859C18.4091 31.9859 17.4019 32.2534 16.7235 32.8084C16.045 33.3634 15.716 34.1447 15.716 35.1728C15.716 36.1391 15.9629 36.8584 16.4766 37.3519C16.9704 37.8659 17.69 38.1128 18.6357 38.1128ZM35.1441 40.3331C34.7741 40.3331 34.5272 40.2712 34.3629 40.1275C34.1985 40.0041 34.0544 39.7162 33.9313 39.3256L29.1 23.4334C28.9763 23.0222 28.9147 22.755 28.9147 22.6109C28.9147 22.2822 29.0791 22.0969 29.4082 22.0969H31.4229C31.8135 22.0969 32.081 22.1587 32.2247 22.3025C32.3891 22.4259 32.5125 22.7137 32.636 23.1044L36.0897 36.7147L39.2972 23.1044C39.4 22.6931 39.5232 22.4262 39.6879 22.3025C39.8522 22.1794 40.14 22.0972 40.51 22.0972H42.1547C42.5454 22.0972 42.8128 22.1587 42.9772 22.3025C43.1416 22.4259 43.2857 22.7137 43.3678 23.1044L46.6163 36.8791L50.1729 23.1044C50.2963 22.6931 50.4404 22.4262 50.5841 22.3025C50.7485 22.1794 51.016 22.0972 51.386 22.0972H53.2979C53.6269 22.0972 53.8119 22.2616 53.8119 22.6109C53.8119 22.7141 53.7913 22.8166 53.7707 22.94C53.7504 23.0634 53.7091 23.2275 53.6269 23.4541L48.6722 39.3462C48.5488 39.7575 48.4047 40.0247 48.2404 40.1481C48.076 40.2712 47.8085 40.3538 47.4591 40.3538H45.691C45.3004 40.3538 45.0332 40.2919 44.8688 40.1481C44.7041 40.0041 44.5604 39.7369 44.4782 39.3256L41.2913 26.065L38.1254 39.305C38.0225 39.7162 37.8991 39.9834 37.7347 40.1275C37.57 40.2712 37.2822 40.3331 36.9122 40.3331H35.1441ZM61.5629 40.8881C60.4938 40.8881 59.4247 40.7647 58.3966 40.5181C57.3688 40.2712 56.5669 40.0041 56.0322 39.6956C55.7035 39.5106 55.4772 39.305 55.395 39.12C55.315 38.9386 55.273 38.7427 55.2716 38.5444V37.4959C55.2716 37.0641 55.436 36.8584 55.7444 36.8584C55.8679 36.8584 55.9913 36.8791 56.1144 36.9203C56.2379 36.9612 56.4229 37.0434 56.6285 37.1259C57.3547 37.4452 58.1128 37.6863 58.89 37.8453C59.6953 38.0089 60.5149 38.0916 61.3366 38.0922C62.6319 38.0922 63.6391 37.8659 64.3382 37.4137C65.0372 36.9612 65.4072 36.3034 65.4072 35.4606C65.4072 34.885 65.2222 34.4119 64.8522 34.0212C64.4822 33.6306 63.7832 33.2812 62.7757 32.9522L59.7947 32.0272C58.2938 31.5544 57.1835 30.8553 56.505 29.9303C55.8266 29.0256 55.4772 28.0178 55.4772 26.9491C55.4772 26.0856 55.6622 25.325 56.0322 24.6669C56.4022 24.0091 56.8957 23.4334 57.5125 22.9813C58.1294 22.5081 58.8285 22.1587 59.6507 21.9119C60.4732 21.665 61.3366 21.5625 62.2413 21.5625C62.6935 21.5625 63.1663 21.5831 63.6188 21.6447C64.0916 21.7063 64.5232 21.7884 64.955 21.8709C65.3663 21.9737 65.7569 22.0766 66.1269 22.2C66.4969 22.3231 66.7847 22.4466 66.9904 22.57C67.2782 22.7344 67.4838 22.8987 67.6072 23.0837C67.7304 23.2484 67.7922 23.4744 67.7922 23.7625V24.7288C67.7922 25.1603 67.6278 25.3866 67.3194 25.3866C67.1547 25.3866 66.8875 25.3044 66.5382 25.1397C65.3663 24.6053 64.0504 24.3381 62.5907 24.3381C61.4188 24.3381 60.4938 24.5231 59.8563 24.9137C59.2191 25.3044 58.89 25.9006 58.89 26.7434C58.89 27.3191 59.0957 27.8125 59.5069 28.2031C59.9179 28.5937 60.6788 28.9844 61.7685 29.3337L64.6879 30.2587C66.1679 30.7319 67.2372 31.3897 67.8744 32.2328C68.5116 33.0756 68.82 34.0419 68.82 35.1109C68.82 35.995 68.635 36.7969 68.2857 37.4959C67.9157 38.195 67.4222 38.8116 66.7847 39.305C66.1475 39.8191 65.3866 40.1891 64.5028 40.4566C63.5775 40.7444 62.6113 40.8881 61.5629 40.8881Z" fill="#252F3E"/>
<path fill-rule="evenodd" clip-rule="evenodd" d="M65.4492 50.8789C58.6852 55.8748 48.858 58.527 40.408 58.527C28.5661 58.527 17.8955 54.1476 9.8364 46.8698C9.1989 46.2942 9.77484 45.5129 10.5355 45.9651C19.2527 51.0226 30.0052 54.086 41.1277 54.086C48.6317 54.086 56.8761 52.5235 64.4623 49.3164C65.593 48.8023 66.5592 50.0564 65.4492 50.8789Z" fill="#FF9900"/>
<path fill-rule="evenodd" clip-rule="evenodd" d="M68.267 47.6782C67.4036 46.5679 62.5517 47.1436 60.3517 47.4107C59.6939 47.4932 59.5911 46.9173 60.1873 46.4857C64.0523 43.772 70.4052 44.5532 71.1455 45.4576C71.8855 46.3829 70.9398 52.7357 67.3214 55.7785C66.7661 56.2514 66.2317 56.0045 66.4783 55.3879C67.3008 53.3526 69.1305 48.7676 68.267 47.6782Z" fill="#FF9900"/>
</svg>
