<svg width="24" height="25" viewBox="0 0 24 25" fill="none" xmlns="http://www.w3.org/2000/svg">
<g id="skill-icons:aws-light">
<g clip-path="url(#clip0_1672_39021)">
<rect y="0.5" width="24" height="24" rx="4" fill="#262837"/>
<path id="Vector" d="M7.94466 10.9963C7.94466 11.2245 7.96932 11.4095 8.01245 11.5452C8.06727 11.6979 8.13326 11.8464 8.20988 11.9893C8.24073 12.0387 8.25301 12.088 8.25301 12.1312C8.25301 12.1929 8.21598 12.2546 8.13582 12.3162L7.74723 12.5753C7.69173 12.6122 7.63623 12.6308 7.58691 12.6308C7.52523 12.6308 7.46354 12.5999 7.40185 12.5444C7.31877 12.4551 7.24443 12.3581 7.17985 12.2546C7.11092 12.136 7.04711 12.0146 6.9886 11.8906C6.50757 12.4581 5.90307 12.7418 5.17529 12.7418C4.65723 12.7418 4.24398 12.5938 3.94173 12.2977C3.63957 12.0016 3.48535 11.6069 3.48535 11.1135C3.48535 10.5892 3.67041 10.1637 4.04663 9.84294C4.42285 9.52222 4.92245 9.36181 5.5577 9.36181C5.76741 9.36181 5.98332 9.38038 6.21151 9.41122C6.4397 9.44206 6.67407 9.49137 6.92082 9.54688V9.09659C6.92082 8.62784 6.8221 8.30094 6.63095 8.10978C6.43351 7.91853 6.10051 7.82609 5.62557 7.82609C5.40966 7.82609 5.18766 7.85075 4.95948 7.90625C4.7312 7.96175 4.5092 8.02962 4.29329 8.11597C4.22317 8.14734 4.15108 8.17412 4.07748 8.19613C4.03435 8.2085 4.00341 8.21469 3.97876 8.21469C3.89251 8.21469 3.8492 8.153 3.8492 8.02344V7.72119C3.8492 7.62256 3.86157 7.5485 3.89241 7.50537C3.92326 7.46225 3.97876 7.41903 4.0651 7.37581C4.28101 7.26481 4.54004 7.17238 4.84229 7.09831C5.14445 7.01806 5.46516 6.98113 5.80445 6.98113C6.53841 6.98113 7.07495 7.14762 7.42041 7.48062C7.7596 7.81372 7.93229 8.3195 7.93229 8.99797V10.9963H7.94466ZM5.4406 11.9338C5.64404 11.9338 5.85376 11.8968 6.07585 11.8228C6.29785 11.7488 6.4952 11.613 6.66179 11.4281C6.76041 11.3109 6.83448 11.1813 6.87141 11.0333C6.90845 10.8853 6.9331 10.7064 6.9331 10.4968V10.2376C6.74608 10.1921 6.55666 10.1571 6.36573 10.1328C6.17341 10.1084 5.97975 10.096 5.78588 10.0958C5.37263 10.0958 5.07048 10.176 4.86695 10.3425C4.66341 10.509 4.5647 10.7434 4.5647 11.0518C4.5647 11.3417 4.63876 11.5575 4.79288 11.7056C4.94101 11.8598 5.15691 11.9338 5.4406 11.9338ZM10.3931 12.5999C10.2821 12.5999 10.2081 12.5814 10.1588 12.5383C10.1094 12.5012 10.0662 12.4149 10.0293 12.2977L8.57992 7.53003C8.54279 7.40666 8.52432 7.3265 8.52432 7.28328C8.52432 7.18466 8.57363 7.12906 8.67235 7.12906H9.27676C9.39395 7.12906 9.4742 7.14762 9.51732 7.19075C9.56663 7.22778 9.60366 7.31412 9.6407 7.43131L10.6768 11.5144L11.6391 7.43131C11.6699 7.30794 11.7069 7.22787 11.7563 7.19075C11.8056 7.15381 11.8919 7.12916 12.0029 7.12916H12.4963C12.6135 7.12916 12.6938 7.14762 12.7431 7.19075C12.7924 7.22778 12.8356 7.31412 12.8603 7.43131L13.8348 11.5637L14.9018 7.43131C14.9388 7.30794 14.982 7.22787 15.0251 7.19075C15.0744 7.15381 15.1547 7.12916 15.2657 7.12916H15.8393C15.938 7.12916 15.9935 7.17847 15.9935 7.28328C15.9935 7.31422 15.9873 7.34497 15.9811 7.382C15.975 7.41903 15.9626 7.46825 15.938 7.53622L14.4516 12.3039C14.4145 12.4272 14.3713 12.5074 14.322 12.5444C14.2727 12.5814 14.1924 12.6061 14.0876 12.6061H13.5572C13.44 12.6061 13.3599 12.5876 13.3105 12.5444C13.2611 12.5012 13.218 12.4211 13.1934 12.2977L12.2373 8.3195L11.2875 12.2915C11.2567 12.4149 11.2196 12.495 11.1703 12.5383C11.1209 12.5814 11.0346 12.5999 10.9236 12.5999H10.3931ZM18.3188 12.7664C17.998 12.7664 17.6773 12.7294 17.3689 12.6554C17.0605 12.5814 16.82 12.5012 16.6596 12.4087C16.5609 12.3532 16.4931 12.2915 16.4684 12.236C16.4444 12.1816 16.4318 12.1228 16.4314 12.0633V11.7488C16.4314 11.6192 16.4807 11.5575 16.5732 11.5575C16.6103 11.5575 16.6473 11.5637 16.6842 11.5761C16.7213 11.5884 16.7768 11.613 16.8384 11.6378C17.0563 11.7336 17.2838 11.8059 17.5169 11.8536C17.7585 11.9027 18.0044 11.9275 18.2509 11.9277C18.6395 11.9277 18.9416 11.8598 19.1514 11.7241C19.3611 11.5884 19.4721 11.391 19.4721 11.1382C19.4721 10.9655 19.4166 10.8236 19.3056 10.7064C19.1946 10.5892 18.9849 10.4844 18.6826 10.3857L17.7883 10.1082C17.338 9.96631 17.0049 9.75659 16.8014 9.47909C16.5979 9.20769 16.4931 8.90534 16.4931 8.58472C16.4931 8.32569 16.5486 8.0975 16.6596 7.90006C16.7706 7.70272 16.9186 7.53003 17.1037 7.39438C17.2887 7.25244 17.4984 7.14762 17.7451 7.07356C17.9919 6.9995 18.2509 6.96875 18.5223 6.96875C18.6579 6.96875 18.7998 6.97494 18.9355 6.99341C19.0774 7.01188 19.2069 7.03653 19.3364 7.06128C19.4598 7.09212 19.577 7.12297 19.688 7.16C19.799 7.19694 19.8853 7.23397 19.947 7.271C20.0334 7.32031 20.095 7.36962 20.1321 7.42512C20.169 7.47453 20.1876 7.54231 20.1876 7.62875V7.91863C20.1876 8.04809 20.1383 8.11597 20.0457 8.11597C19.9963 8.11597 19.9162 8.09131 19.8114 8.04191C19.4598 7.88159 19.065 7.80144 18.6271 7.80144C18.2755 7.80144 17.998 7.85694 17.8068 7.97412C17.6156 8.09131 17.5169 8.27019 17.5169 8.52303C17.5169 8.69572 17.5786 8.84375 17.702 8.96094C17.8253 9.07812 18.0535 9.19531 18.3804 9.30012L19.2563 9.57763C19.7003 9.71956 20.0211 9.91691 20.2122 10.1698C20.4034 10.4227 20.4959 10.7126 20.4959 11.0333C20.4959 11.2985 20.4404 11.5391 20.3356 11.7488C20.2246 11.9585 20.0766 12.1435 19.8853 12.2915C19.6942 12.4457 19.4659 12.5567 19.2008 12.637C18.9232 12.7233 18.6333 12.7664 18.3188 12.7664Z" fill="#F7F7F8"/>
<path id="Vector_2" fill-rule="evenodd" clip-rule="evenodd" d="M19.4848 15.7646C17.4555 17.2634 14.5074 18.0591 11.9724 18.0591C8.41983 18.0591 5.21864 16.7453 2.80092 14.5619C2.60967 14.3892 2.78245 14.1549 3.01064 14.2905C5.6258 15.8078 8.85155 16.7268 12.1883 16.7268C14.4395 16.7268 16.9128 16.258 19.1887 15.2959C19.5279 15.1417 19.8178 15.5179 19.4848 15.7646Z" fill="#FF9900"/>
<path id="Vector_3" fill-rule="evenodd" clip-rule="evenodd" d="M20.33 14.8023C20.071 14.4692 18.6154 14.6419 17.9554 14.722C17.7581 14.7468 17.7272 14.574 17.9061 14.4445C19.0656 13.6304 20.9715 13.8648 21.1935 14.1361C21.4155 14.4137 21.1319 16.3195 20.0463 17.2324C19.8797 17.3742 19.7194 17.3002 19.7934 17.1152C20.0401 16.5046 20.589 15.1291 20.33 14.8023Z" fill="#FF9900"/>
</g>
</g>
<defs>
<clipPath id="clip0_1672_39021">
<rect y="0.5" width="24" height="24" rx="4" fill="white"/>
</clipPath>
</defs>
</svg>
