<svg width="81" height="80" viewBox="0 0 81 80" fill="none" xmlns="http://www.w3.org/2000/svg">
<path d="M61.75 0H19.25C8.89466 0 0.5 8.39466 0.5 18.75V61.25C0.5 71.6053 8.89466 80 19.25 80H61.75C72.1053 80 80.5 71.6053 80.5 61.25V18.75C80.5 8.39466 72.1053 0 61.75 0Z" fill="#EAEAEA"/>
<path d="M30.0856 10.6256H48.58L29.3813 67.51C29.184 68.0946 28.8083 68.6026 28.3071 68.9625C27.8059 69.3223 27.2045 69.5159 26.5875 69.5159H12.1944C11.4891 69.5161 10.8071 69.2629 10.2727 68.8026C9.73828 68.3423 9.3869 67.7054 9.28252 67.0078C9.21324 66.5456 9.25502 66.0735 9.4044 65.6306L27.2916 12.6316C27.4888 12.0468 27.8645 11.5387 28.3657 11.1787C28.867 10.8187 29.4685 10.6251 30.0856 10.625V10.6256Z" fill="url(#paint0_linear_424_8741)"/>
<path d="M56.9606 48.7793H27.6331C27.3604 48.7789 27.094 48.8606 26.8685 49.014C26.643 49.1673 26.469 49.385 26.3691 49.6387C26.269 49.8923 26.2477 50.1702 26.3079 50.4361C26.368 50.702 26.5068 50.9437 26.7062 51.1296L45.5516 68.7193C46.1002 69.231 46.8226 69.5155 47.5728 69.5156H64.1794L56.9606 48.7793Z" fill="#0078D4"/>
<path d="M30.0858 10.625C29.4619 10.6226 28.8536 10.8198 28.3498 11.1877C27.8459 11.5557 27.4729 12.075 27.2852 12.67L9.42642 65.5816C9.26708 66.0261 9.2171 66.5024 9.28072 66.9703C9.34434 67.4382 9.51968 67.884 9.79192 68.2698C10.0642 68.6556 10.4253 68.9702 10.8448 69.187C11.2643 69.4038 11.7298 69.5164 12.202 69.5153H26.9667C27.5165 69.4168 28.0304 69.1742 28.4558 68.8123C28.8813 68.4504 29.2032 67.9822 29.3886 67.4553L32.9502 56.9597L45.6714 68.8247C46.2044 69.2657 46.8731 69.5096 47.5649 69.5153H64.1096L56.8533 48.7794L35.7005 48.7844L48.6467 10.625H30.0858Z" fill="url(#paint1_linear_424_8741)"/>
<path d="M53.7072 12.6281C53.5105 12.0442 53.1353 11.5367 52.6348 11.1773C52.1342 10.8179 51.5334 10.6247 50.9172 10.625H30.3057C30.9218 10.6249 31.5225 10.8182 32.023 11.1776C32.5236 11.5369 32.8987 12.0443 33.0957 12.6281L50.9835 65.6294C51.1328 66.0724 51.1746 66.5446 51.1054 67.0069C51.0362 67.4692 50.8581 67.9085 50.5857 68.2884C50.3129 68.6681 49.9537 68.9775 49.5377 69.1909C49.1218 69.4044 48.661 69.5158 48.1935 69.5159H68.8057C69.2732 69.5157 69.7339 69.4042 70.1498 69.1907C70.5657 68.9772 70.9248 68.6678 71.1975 68.2881C71.4701 67.9083 71.6482 67.4691 71.7174 67.0068C71.7865 66.5444 71.7446 66.0723 71.595 65.6294L53.7072 12.6281Z" fill="url(#paint2_linear_424_8741)"/>
<defs>
<linearGradient id="paint0_linear_424_8741" x1="36.8263" y1="14.9897" x2="17.6197" y2="71.7313" gradientUnits="userSpaceOnUse">
<stop stop-color="#114A8B"/>
<stop offset="1" stop-color="#0669BC"/>
</linearGradient>
<linearGradient id="paint1_linear_424_8741" x1="42.8261" y1="41.4322" x2="38.3833" y2="42.9344" gradientUnits="userSpaceOnUse">
<stop stop-opacity="0.3"/>
<stop offset="0.071" stop-opacity="0.2"/>
<stop offset="0.321" stop-opacity="0.1"/>
<stop offset="0.623" stop-opacity="0.05"/>
<stop offset="1" stop-opacity="0"/>
</linearGradient>
<linearGradient id="paint2_linear_424_8741" x1="40.3825" y1="13.3341" x2="61.4657" y2="69.5037" gradientUnits="userSpaceOnUse">
<stop stop-color="#3CCBF4"/>
<stop offset="1" stop-color="#2892DF"/>
</linearGradient>
</defs>
</svg>
