<svg width="61" height="60" viewBox="0 0 61 60" fill="none" xmlns="http://www.w3.org/2000/svg">
<path d="M46.4375 0H14.5625C6.79602 0 0.5 6.29602 0.5 14.0625V45.9375C0.5 53.704 6.79602 60 14.5625 60H46.4375C54.204 60 60.5 53.704 60.5 45.9375V14.0625C60.5 6.29602 54.204 0 46.4375 0Z" fill="#F4F2ED"/>
<path d="M11.3494 12.1954C11.1594 12.1929 10.971 12.2312 10.797 12.3079C10.6236 12.3848 10.4689 12.4978 10.3447 12.6396C10.2207 12.7805 10.1295 12.9472 10.0775 13.1275C10.0257 13.3072 10.0147 13.4962 10.0451 13.6807L15.582 46.6708C15.652 47.0763 15.8639 47.4437 16.1799 47.7072C16.4991 47.9736 16.9009 48.1209 17.3166 48.1239H43.8788C44.1905 48.1281 44.4936 48.0218 44.7345 47.8239C44.9729 47.6282 45.1323 47.3526 45.1831 47.0484L50.72 13.687C50.7505 13.5025 50.7394 13.3135 50.6876 13.1339C50.6356 12.9535 50.5443 12.787 50.4202 12.6461C50.2954 12.5042 50.1411 12.3911 49.9681 12.3147C49.7941 12.2379 49.6056 12.1995 49.4155 12.202L11.3494 12.1954ZM34.6639 36.0386H26.1858L23.8904 24.2674H36.7182L34.6639 36.0386Z" fill="#2684FF"/>
<path d="M48.9252 24.25H36.6943L34.6416 36.0119H26.1704L16.168 47.665C16.487 47.9347 16.8905 48.0841 17.3082 48.0871H43.8559C44.1673 48.0913 44.4702 47.9851 44.7109 47.7873C44.9491 47.5918 45.1083 47.3165 45.159 47.0125L48.9252 24.25Z" fill="url(#paint0_linear_877_6014)"/>
<defs>
<linearGradient id="paint0_linear_877_6014" x1="9194.77" y1="784.57" x2="5517.38" y2="5545.45" gradientUnits="userSpaceOnUse">
<stop offset="0.18" stop-color="#0052CC"/>
<stop offset="1" stop-color="#2684FF"/>
</linearGradient>
</defs>
</svg>
