<svg width="83" height="60" viewBox="0 0 83 60" fill="none" xmlns="http://www.w3.org/2000/svg">
<path d="M81.2867 22.8639C79.4176 21.5666 75.1344 21.0801 71.7858 21.7288C71.3968 18.4855 69.6055 15.648 66.4904 13.1345L64.6994 11.8372L63.4531 13.7021C61.8959 16.1345 61.1171 19.5399 61.3505 22.7831C61.4283 23.9179 61.8177 25.945 62.9859 27.7288C61.8959 28.3774 59.6374 29.1882 56.6782 29.1882H0.374384L0.21876 29.8369C-0.326576 33.0798 -0.326577 43.2146 6.05924 50.9981C10.8875 56.9167 18.0521 59.9166 27.4749 59.9166C47.8779 59.9166 62.9859 50.1058 70.0727 32.3501C72.8762 32.4311 78.8726 32.3501 81.9099 26.269C81.9877 26.1068 82.1433 25.7825 82.6883 24.5666L82.9999 23.9179L81.2867 22.8639ZM45.386 0H36.8201V8.10778H45.386V0ZM45.386 9.72941H36.8201V17.8372H45.386V9.72941ZM35.2623 9.72941H26.6964V17.8372H35.2623V9.72941ZM25.1385 9.72941H16.5724V17.8372H25.1385V9.72941ZM15.0148 19.4588H6.44862V27.5666H15.0145L15.0148 19.4588ZM25.1385 19.4588H16.5724V27.5666H25.1385V19.4588ZM35.2623 19.4588H26.6964V27.5666H35.2623V19.4588ZM45.3863 19.4588H36.8198V27.5666H45.3863V19.4588ZM55.5101 19.4588H46.9435V27.5666H55.5101V19.4588Z" fill="#2396ED"/>
</svg>
