<svg width="61" height="60" viewBox="0 0 61 60" fill="none" xmlns="http://www.w3.org/2000/svg">
<path d="M60.5 30.7507C60.5 37.4527 58.592 43.4797 54.776 48.8317C50.963 54.1837 46.034 57.8857 39.992 59.9407C39.29 60.0757 38.774 59.9827 38.45 59.6617C38.2901 59.5063 38.1642 59.3194 38.08 59.1129C37.9959 58.9064 37.9554 58.6847 37.961 58.4617V50.0107C37.961 47.4217 37.283 45.5257 35.93 44.3257C37.2817 44.1901 38.6207 43.9494 39.935 43.6057C41.117 43.2847 42.341 42.7657 43.604 42.0457C44.8183 41.3663 45.8923 40.4623 46.769 39.3817C47.615 38.3257 48.305 36.9247 48.839 35.1757C49.373 33.4267 49.64 31.4197 49.64 29.1517C49.64 25.9207 48.611 23.1697 46.556 20.9017C47.516 18.4717 47.414 15.7507 46.241 12.7327C45.512 12.4927 44.459 12.6427 43.079 13.1737C41.8272 13.644 40.6237 14.2337 39.485 14.9347L38 15.8947C35.5609 15.1994 33.0363 14.8499 30.5 14.8567C27.9636 14.8509 25.4389 15.2013 23 15.8977C22.4574 15.522 21.9042 15.1618 21.341 14.8177C20.651 14.3887 19.562 13.8757 18.077 13.2757C16.595 12.6757 15.473 12.4957 14.717 12.7357C13.574 15.7507 13.481 18.4717 14.447 20.9017C12.389 23.1697 11.357 25.9207 11.357 29.1517C11.357 31.4197 11.627 33.4207 12.161 35.1577C12.695 36.8917 13.379 38.2927 14.21 39.3607C15.0717 40.4525 16.14 41.3639 17.354 42.0427C18.617 42.7627 19.844 43.2847 21.026 43.6027C22.211 43.9267 23.546 44.1667 25.031 44.3257C23.99 45.2857 23.351 46.6627 23.117 48.4507C22.5577 48.7217 21.9673 48.9232 21.359 49.0507C20.626 49.1946 19.88 49.262 19.133 49.2517C18.272 49.2517 17.423 48.9637 16.574 48.3907C15.728 47.8147 15.005 46.9807 14.405 45.8887C13.9363 45.0629 13.2897 44.3517 12.512 43.8067C11.744 43.2727 11.099 42.9517 10.577 42.8467L9.797 42.7267C9.251 42.7267 8.873 42.7867 8.663 42.9067C8.453 43.0267 8.393 43.1767 8.468 43.3657C8.55623 43.5693 8.67456 43.7584 8.819 43.9267C8.96886 44.1069 9.14013 44.2681 9.329 44.4067L9.599 44.6047C10.175 44.8747 10.739 45.3817 11.3 46.1287C11.861 46.8757 12.272 47.5567 12.53 48.1687L12.92 49.0897C13.259 50.1037 13.832 50.9257 14.642 51.5527C15.449 52.1827 16.322 52.5817 17.258 52.7527C18.194 52.9267 19.1 53.0227 19.973 53.0347C20.843 53.0467 21.569 53.0017 22.142 52.8937L23.039 52.7347C23.039 53.7487 23.045 54.9367 23.06 56.2987L23.078 58.4587C23.078 58.9387 22.91 59.3407 22.568 59.6587C22.232 59.9827 21.71 60.0757 21.008 59.9407C14.966 57.8857 10.037 54.1807 6.224 48.8317C2.408 43.4797 0.5 37.4527 0.5 30.7507C0.5 25.1707 1.841 20.0287 4.523 15.3157C7.11945 10.6932 10.8852 6.8343 15.443 4.12574C19.9865 1.39068 25.1969 -0.0367708 30.5 0.000741892C35.8041 -0.0373241 41.0156 1.39015 45.56 4.12574C50.1166 6.83471 53.8814 10.6936 56.477 15.3157C59.159 20.0257 60.5 25.1737 60.5 30.7507Z" fill="#373737"/>
</svg>
