<svg width="65" height="60" viewBox="0 0 65 60" fill="none" xmlns="http://www.w3.org/2000/svg">
<g clip-path="url(#clip0_877_6021)">
<path d="M32.5188 60.0208L44.4788 23.1641H20.5586L32.5188 60.0208Z" fill="#E24329"/>
<path d="M32.5195 60.0169L20.5592 23.1602H3.79785L32.5195 60.0169Z" fill="#FC6D26"/>
<path d="M3.79762 23.1602L0.163206 34.3608C0.00160919 34.8588 0.0015869 35.3952 0.163143 35.8931C0.324699 36.3911 0.639539 36.825 1.06254 37.1328L32.5192 60.0172L3.79762 23.1602Z" fill="#FCA326"/>
<path d="M3.79785 23.1608H20.5592L13.3562 0.96209C12.9854 -0.180199 11.3716 -0.179944 11.0012 0.96209L3.79785 23.1608Z" fill="#E24329"/>
<path d="M32.5186 60.0169L44.4786 23.1602H61.2402L32.5186 60.0169Z" fill="#FC6D26"/>
<path d="M61.2402 23.1602L64.8746 34.3608C65.0362 34.8588 65.0361 35.3952 64.8745 35.8932C64.7129 36.3911 64.398 36.825 63.975 37.1328L32.5186 60.0172L61.2402 23.1602Z" fill="#FCA326"/>
<path d="M61.2411 23.1608H44.4795L51.6828 0.96209C52.0535 -0.180199 53.6673 -0.179944 54.0378 0.96209L61.2411 23.1608Z" fill="#E24329"/>
</g>
<defs>
<clipPath id="clip0_877_6021">
<rect width="65" height="60" fill="white"/>
</clipPath>
</defs>
</svg>
