<svg width="81" height="80" viewBox="0 0 81 80" fill="none" xmlns="http://www.w3.org/2000/svg">
<path d="M61.75 0H19.25C8.89466 0 0.5 8.39466 0.5 18.75V61.25C0.5 71.6053 8.89466 80 19.25 80H61.75C72.1053 80 80.5 71.6053 80.5 61.25V18.75C80.5 8.39466 72.1053 0 61.75 0Z" fill="#EAEAEA"/>
<path d="M50.815 28.8718L56.2478 23.4387L56.61 21.1512C46.71 12.149 30.9725 13.1699 22.0475 23.2812C19.5687 26.0893 17.7296 29.5905 16.749 33.2062L18.6946 32.9318L29.5603 31.1402L30.399 30.2824C35.2321 24.9743 43.4043 24.2599 48.985 28.7762L50.815 28.8718Z" fill="#EA4335"/>
<path d="M63.988 33.0473C62.7393 28.4487 60.1754 24.3146 56.6108 21.1523L48.9858 28.7773C50.5749 30.0758 51.8485 31.7182 52.7103 33.5806C53.5722 35.443 53.9999 37.4768 53.9611 39.5286V40.882C57.7089 40.882 60.7473 43.9202 60.7473 47.668C60.7473 51.4161 57.7089 54.3783 53.9611 54.3783H40.3695L39.0352 55.827V63.9667L40.3695 65.2439H53.9611C63.7095 65.3198 71.6739 57.5548 71.7498 47.8064C71.7726 44.8972 71.0759 42.0274 69.7217 39.4525C68.3675 36.8775 66.3979 34.6772 63.988 33.0473Z" fill="#4285F4"/>
<path d="M26.7966 65.2432H40.3691V54.3776H26.7966C25.8357 54.3774 24.8863 54.1693 24.0134 53.7676L22.0881 54.3585L16.6172 59.7913L16.1406 61.6404C19.2088 63.957 22.9519 65.2598 26.7966 65.2432Z" fill="#34A853"/>
<path d="M26.7969 29.9965C17.0481 30.0546 9.1925 38.0046 9.25032 47.7531C9.26636 50.4395 9.89538 53.0869 11.0894 55.4934C12.2835 57.8999 14.0111 60.0022 16.1406 61.64L24.0134 53.7671C20.5978 52.224 19.08 48.204 20.6231 44.7887C22.1663 41.3731 26.1863 39.8553 29.6013 41.3981C31.1064 42.0781 32.3119 43.2836 32.9919 44.7887L40.8647 36.9159C39.2123 34.7556 37.0826 33.0068 34.642 31.8064C32.2015 30.606 29.5163 29.9864 26.7966 29.9962" fill="#FBBC05"/>
</svg>
