<svg width="30" height="34" viewBox="0 0 30 34" fill="none" xmlns="http://www.w3.org/2000/svg">
<path d="M14.5888 12.8153C14.6548 12.3525 15.3151 12.3525 15.3811 12.8153L16.5854 21.2577C16.6203 21.5019 16.4331 21.7205 16.1893 21.7205H13.7807C13.5368 21.7205 13.3497 21.5019 13.3845 21.2577L14.5888 12.8153Z" fill="url(#paint0_linear_1149_4779)"/>
<path d="M12.3525 14.9604C12.3525 13.4807 13.538 12.2812 15.0004 12.2812C16.4627 12.2812 17.6482 13.4807 17.6482 14.9604C17.6482 16.44 16.4627 17.6395 15.0004 17.6395C13.538 17.6395 12.3525 16.44 12.3525 14.9604Z" fill="url(#paint1_linear_1149_4779)"/>
<path d="M5.54348 11.5643C5.54348 11.491 5.58193 11.4233 5.64434 11.3866L14.8991 5.95127C14.9615 5.91461 15.0385 5.91461 15.1009 5.95127L22.8916 10.5268C22.954 10.5634 23.0309 10.5634 23.0933 10.5268L27.7331 7.80182C27.8676 7.72283 27.8676 7.52539 27.7331 7.4464L15.1009 0.0274951C15.0385 -0.00916492 14.9615 -0.00916507 14.8991 0.0274949L0.600864 8.42489C0.538449 8.46154 0.5 8.52929 0.5 8.60259V23.4404C0.5 23.5984 0.668121 23.6971 0.802614 23.6181L5.44261 20.893C5.50503 20.8564 5.54348 20.7886 5.54348 20.7153V11.5643Z" fill="url(#paint2_linear_1149_4779)"/>
<path d="M7.20561 23.5303C7.14319 23.4937 7.06628 23.4937 7.00386 23.5303L2.3641 26.2553C2.22962 26.3342 2.22962 26.5317 2.3641 26.6107L14.8991 33.9725C14.9615 34.0092 15.0385 34.0092 15.1009 33.9725L29.3991 25.5751C29.4616 25.5385 29.5 25.4707 29.5 25.3974V10.6737C29.5 10.5158 29.3319 10.417 29.1974 10.496L24.5574 13.2211C24.495 13.2578 24.4565 13.3255 24.4565 13.3988V22.4357C24.4565 22.509 24.4181 22.5767 24.3557 22.6134L15.1009 28.0487C15.0385 28.0854 14.9615 28.0854 14.8991 28.0487L7.20561 23.5303Z" fill="url(#paint3_linear_1149_4779)"/>
<defs>
<linearGradient id="paint0_linear_1149_4779" x1="12.3525" y1="12.2813" x2="20.2812" y2="15.8182" gradientUnits="userSpaceOnUse">
<stop offset="0.198551" stop-color="#2E54C3"/>
<stop offset="0.683389" stop-color="#1F3A89"/>
</linearGradient>
<linearGradient id="paint1_linear_1149_4779" x1="12.3525" y1="12.2813" x2="20.2812" y2="15.8182" gradientUnits="userSpaceOnUse">
<stop offset="0.198551" stop-color="#2E54C3"/>
<stop offset="0.683389" stop-color="#1F3A89"/>
</linearGradient>
<linearGradient id="paint2_linear_1149_4779" x1="0.5" y1="0" x2="36.1576" y2="24.1838" gradientUnits="userSpaceOnUse">
<stop offset="0.198551" stop-color="#2E54C3"/>
<stop offset="0.683389" stop-color="#1F3A89"/>
</linearGradient>
<linearGradient id="paint3_linear_1149_4779" x1="0.5" y1="0" x2="36.1576" y2="24.1838" gradientUnits="userSpaceOnUse">
<stop offset="0.198551" stop-color="#2E54C3"/>
<stop offset="0.683389" stop-color="#1F3A89"/>
</linearGradient>
</defs>
</svg>
