<svg xmlns="http://www.w3.org/2000/svg" width="18.338" height="24.451" viewBox="0 0 18.338 24.451">
  <path id="Icon_awesome-file-csv" data-name="Icon awesome-file-csv" d="M10.7,6.495V0H1.146A1.143,1.143,0,0,0,0,1.146V23.305a1.143,1.143,0,0,0,1.146,1.146H17.192a1.143,1.143,0,0,0,1.146-1.146V7.641H11.844A1.15,1.15,0,0,1,10.7,6.495ZM6.113,13.372a.382.382,0,0,1-.382.382H5.349a.764.764,0,0,0-.764.764v1.528a.764.764,0,0,0,.764.764h.382a.382.382,0,0,1,.382.382v.764a.382.382,0,0,1-.382.382H5.349a2.292,2.292,0,0,1-2.292-2.292V14.518a2.292,2.292,0,0,1,2.292-2.292h.382a.382.382,0,0,1,.382.382Zm2.114,4.967H7.641a.382.382,0,0,1-.382-.382v-.764a.382.382,0,0,1,.382-.382h.586c.284,0,.5-.167.5-.316a.253.253,0,0,0-.1-.183l-1.045-.9a1.772,1.772,0,0,1-.637-1.344,1.943,1.943,0,0,1,2.025-1.844h.585a.382.382,0,0,1,.382.382v.764a.382.382,0,0,1-.382.382H8.965c-.284,0-.5.167-.5.316a.253.253,0,0,0,.1.183l1.045.9a1.772,1.772,0,0,1,.637,1.344A1.942,1.942,0,0,1,8.227,18.338Zm4-5.731V13.6a5.206,5.206,0,0,0,.764,2.716,5.2,5.2,0,0,0,.764-2.716v-.993a.382.382,0,0,1,.382-.382H14.9a.382.382,0,0,1,.382.382V13.6a6.569,6.569,0,0,1-1.733,4.493.764.764,0,0,1-1.119,0A6.569,6.569,0,0,1,10.7,13.6v-.993a.382.382,0,0,1,.382-.382h.764A.382.382,0,0,1,12.226,12.608ZM18,5.014,13.329.334A1.145,1.145,0,0,0,12.517,0h-.291V6.113h6.113V5.821A1.142,1.142,0,0,0,18,5.014Z" fill="#ca3bad"/>
</svg>
