<svg id="Ico" xmlns="http://www.w3.org/2000/svg" width="40" height="40" viewBox="0 0 40 40">
  <g id="bg" opacity="0.5">
    <rect id="Rectangle_946" data-name="Rectangle 946" width="40" height="40" rx="4" fill="#488948"/>
  </g>
  <path id="Icon_awesome-user-alt" data-name="Icon awesome-user-alt" d="M6.934,7.8a3.9,3.9,0,1,0-3.9-3.9A3.9,3.9,0,0,0,6.934,7.8Zm3.467.867H8.909a4.715,4.715,0,0,1-3.949,0H3.467A3.467,3.467,0,0,0,0,12.135v.433a1.3,1.3,0,0,0,1.3,1.3H12.568a1.3,1.3,0,0,0,1.3-1.3v-.433A3.467,3.467,0,0,0,10.4,8.668Z" transform="translate(13.065 12.828)" fill="#fff"/>
</svg>
