<svg xmlns="http://www.w3.org/2000/svg" width="23.454" height="23.026" viewBox="0 0 23.454 23.026">
  <path id="Icon_simple-microsoftexcel" data-name="Icon simple-microsoftexcel" d="M23.018,3.146H15.16V4.6h2.316V6.9H15.16v.733h2.316v2.3H15.16v.753h2.316v2.178H15.16v.873h2.316v2.183H15.16V16.8h2.316v2.2H15.16v1.6h7.857c.124-.037.228-.184.311-.438a2.143,2.143,0,0,0,.126-.622V3.412c0-.125-.043-.2-.126-.227A1.075,1.075,0,0,0,23.018,3.146ZM22,18.991H18.229V16.8H22v2.194Zm0-3.067H18.229V13.741H22Zm0-3.057H18.229V10.7H22v2.169Zm0-2.932H18.229v-2.3H22v2.3h0Zm0-3.048H18.229V4.6H22V6.888ZM0,2.783V20.962l13.838,2.393V.329L0,2.791ZM8.2,16.535q-.079-.214-.741-1.821c-.439-1.071-.7-1.695-.781-1.872H6.656L5.172,16.374,3.188,16.24l2.353-4.4-2.155-4.4,2.023-.107,1.337,3.441h.026l1.51-3.6,2.09-.132L7.884,11.809l2.565,4.855L8.2,16.533Z" transform="translate(0 -0.328)" fill="#3a690b"/>
</svg>
