<svg xmlns="http://www.w3.org/2000/svg" width="18.338" height="24.451" viewBox="0 0 18.338 24.451">
  <path id="Icon_awesome-file-pdf" data-name="Icon awesome-file-pdf" d="M8.687,12.23a4.608,4.608,0,0,1-.1-2.24C8.992,9.991,8.954,11.753,8.687,12.23Zm-.081,2.254a22.036,22.036,0,0,1-1.356,2.994,17.585,17.585,0,0,1,3-1.046A6.186,6.186,0,0,1,8.606,14.484Zm-4.494,5.96c0,.038.63-.258,1.667-1.92A6.6,6.6,0,0,0,4.112,20.444Zm7.732-12.8h6.495V23.305a1.143,1.143,0,0,1-1.146,1.146H1.146A1.143,1.143,0,0,1,0,23.305V1.146A1.143,1.143,0,0,1,1.146,0H10.7V6.495A1.15,1.15,0,0,0,11.844,7.641Zm-.382,8.2a4.793,4.793,0,0,1-2.039-2.569,6.864,6.864,0,0,0,.3-3.066,1.2,1.2,0,0,0-2.283-.325,7.941,7.941,0,0,0,.387,3.677,44.844,44.844,0,0,1-1.948,4.1s0,0-.01,0c-1.294.664-3.515,2.125-2.6,3.247a1.484,1.484,0,0,0,1.027.478c.855,0,1.7-.86,2.918-2.951a27.221,27.221,0,0,1,3.773-1.108,7.237,7.237,0,0,0,3.056.931,1.236,1.236,0,0,0,.941-2.073c-.664-.649-2.593-.463-3.515-.344ZM18,5.014,13.324.334A1.145,1.145,0,0,0,12.512,0h-.287V6.113h6.113V5.821A1.142,1.142,0,0,0,18,5.014ZM14.465,17.207c.2-.129-.119-.568-2.044-.43C14.193,17.531,14.465,17.207,14.465,17.207Z" fill="#d94f03"/>
</svg>
